PathFileType	4	(X/Y/Z)	/Users/itak/Documents/Research/Walk-IL/dataset/trc/00547_00009.trc
DataRate	CameraRate	NumFrames	NumMarkers	Units	OrigDataRate	OrigDataStartFrame	OrigNumFrames
100.000000	100.000000	4	53	mm	100.000000	270	541
Frame#	Time	RPSI			LPSI			L3			STRN			T10			C7			CLAV			RBAK			LBAK			LSHO			LUPA			LAEL			LAOL			LWTS			LWPS			LFRA			LIFD			LHPS			LHTS			RSHO			RUPA			RAEL			RAOL			RWTS			RWPS			RFRA			RIFD			RHTS			RHPS			RBHD			LFHD			RFHD			LBHD			LHIP			RHIP			RASI			LASI			LKNE			LTHI			LANK			LTIP			LTOE			LMT1			LMT5			LHEE			RKNE			RTHI			RANK			RTIP			RTOE			RMT1			RMT5			RHEE			
		X1	Y1	Z1	X2	Y2	Z2	X3	Y3	Z3	X4	Y4	Z4	X5	Y5	Z5	X6	Y6	Z6	X7	Y7	Z7	X8	Y8	Z8	X9	Y9	Z9	X10	Y10	Z10	X11	Y11	Z11	X12	Y12	Z12	X13	Y13	Z13	X14	Y14	Z14	X15	Y15	Z15	X16	Y16	Z16	X17	Y17	Z17	X18	Y18	Z18	X19	Y19	Z19	X20	Y20	Z20	X21	Y21	Z21	X22	Y22	Z22	X23	Y23	Z23	X24	Y24	Z24	X25	Y25	Z25	X26	Y26	Z26	X27	Y27	Z27	X28	Y28	Z28	X29	Y29	Z29	X30	Y30	Z30	X31	Y31	Z31	X32	Y32	Z32	X33	Y33	Z33	X34	Y34	Z34	X35	Y35	Z35	X36	Y36	Z36	X37	Y37	Z37	X38	Y38	Z38	X39	Y39	Z39	X40	Y40	Z40	X41	Y41	Z41	X42	Y42	Z42	X43	Y43	Z43	X44	Y44	Z44	X45	Y45	Z45	X46	Y46	Z46	X47	Y47	Z47	X48	Y48	Z48	X49	Y49	Z49	X50	Y50	Z50	X51	Y51	Z51	X52	Y52	Z52	X53	Y53	Z53	

271	2.7	-41.01833343505859	1000.462951660156	343.3820495605469	-30.0641918182373	1004.909301757812	210.9801788330078	-28.0886058807373	1099.474853515625	277.570068359375	209.3110656738281	1283.238525390625	281.2593078613281	-34.38305282592773	1223.964233398438	277.1573486328125	17.89646911621094	1497.101806640625	295.5610046386719	191.8693695068359	1394.745971679688	281.6549377441406	-51.71504211425781	1372.73974609375	382.576171875	-18.26566886901855	1445.9248046875	204.809814453125	79.16622161865234	1470.597900390625	122.8857192993164	65.65359497070312	1346.96875	39.5670280456543	82.61664581298828	1124.62939453125	13.17154216766357	-5.46736478805542	1116.176391601562	63.68601608276367	185.0061340332031	886.478271484375	61.84485244750977	143.1128845214844	861.4755249023438	-10.62764167785645	108.6703720092773	1039.880126953125	6.261992454528809	192.7739562988281	716.9862670898438	57.73191070556641	155.735107421875	802.6713256835938	-2.723134994506836	206.7096405029297	810.9640502929688	42.34607696533203	82.11149597167969	1458.326538085938	449.0143737792969	62.0390739440918	1395.993774414062	517.1790771484375	36.28460311889648	1110.185913085938	569.5635986328125	-21.80107307434082	1097.983154296875	544.6262817382812	145.8348388671875	876.2933959960938	535.4595947265625	102.2189865112305	862.8787841796875	603.8035278320312	41.37799835205078	1054.6396484375	578.872314453125	139.8462524414062	703.23388671875	545.1704711914062	164.9032287597656	783.0540771484375	552.461669921875	110.7876586914062	787.2449951171875	603.2623901367188	96.14261627197266	1673.743530273438	363.3371887207031	245.3250274658203	1700.861694335938	221.1895294189453	235.4583282470703	1696.707885742188	365.1901550292969	114.9513854980469	1676.723754882812	199.2913360595703	114.1102066040039	931.5626220703125	93.43814849853516	69.44606781005859	923.849853515625	471.3660888671875	162.1727905273438	954.5451049804688	426.2785949707031	184.3727264404297	957.90771484375	152.3106689453125	236.2125701904297	503.8776245117188	188.2609100341797	197.4913787841797	662.0968627929688	137.0723571777344	159.8415069580078	30.00565338134766	222.7700958251953	181.6876983642578	249.1937713623047	199.4158630371094	370.1658935546875	42.50098037719727	286.4606018066406	296.4323425292969	48.01368713378906	319.9073486328125	281.5062255859375	35.02304840087891	212.6315460205078	92.01650238037109	37.52267074584961	276.0599365234375	73.90203094482422	479.8896789550781	451.8569030761719	102.1798629760742	770.0702514648438	471.5195007324219	-310.0816650390625	185.5299530029297	393.136962890625	-11.70078182220459	359.6705017089844	431.78955078125	-166.2247467041016	39.12839508056641	334.375	-205.4342498779297	88.90753936767578	299.4938049316406	-234.0322418212891	78.44193267822266	399.1349792480469	-337.7629699707031	236.4657592773438	340.8388366699219	
272	2.71	-33.24777603149414	1000.63818359375	343.3155822753906	-22.15608978271484	1005.777404785156	210.8635711669922	-19.81049537658691	1100.296142578125	277.3141174316406	217.5887603759766	1283.842529296875	281.5287475585938	-26.15099716186523	1224.727294921875	276.6670837402344	26.329345703125	1497.958740234375	294.828125	200.2490081787109	1395.393920898438	281.9326782226562	-43.77395248413086	1373.68017578125	381.5867614746094	-9.406005859375	1446.796020507812	203.9031372070312	88.59095001220703	1471.256958007812	122.5562057495117	76.12340545654297	1347.715698242188	39.03168869018555	95.12404632568359	1125.648315429688	12.27242374420166	6.284033298492432	1116.297485351562	61.39262771606445	199.6854248046875	888.7456665039062	61.837158203125	158.8726043701172	863.234130859375	-11.05412673950195	122.0577697753906	1041.18603515625	5.493099689483643	209.9760437011719	719.4346923828125	57.70300674438477	172.2951354980469	804.6280517578125	-3.09168815612793	222.7209014892578	813.609130859375	42.44672393798828	89.81267547607422	1459.278076171875	448.6577453613281	69.28255462646484	1397.066772460938	516.7704467773438	42.67622375488281	1111.45361328125	569.476318359375	-15.43039321899414	1099.166259765625	544.376220703125	153.2347412109375	878.1028442382812	535.9374389648438	109.2738265991211	864.3588256835938	603.9508666992188	47.73023986816406	1055.86865234375	578.8424682617188	148.2710266113281	705.0499267578125	545.494140625	172.7975006103516	785.021484375	553.0094604492188	118.2675857543945	788.8264770507812	603.4043579101562	104.394172668457	1674.431884765625	363.0193481445312	253.6259307861328	1701.805053710938	220.9852142333984	243.6990356445312	1697.683837890625	364.989013671875	123.3889083862305	1677.421875	198.9927673339844	121.9169769287109	932.5361328125	93.07019805908203	78.13724517822266	924.091796875	470.9400939941406	170.4143524169922	955.3716430664062	425.6505126953125	192.0924377441406	958.5415649414062	151.5943756103516	238.7771148681641	503.25	187.7321929931641	201.9518432617188	661.9132080078125	136.7028656005859	159.8201141357422	29.9942684173584	222.7972106933594	182.6770324707031	248.9472351074219	199.0613403320312	370.1907653808594	42.4533805847168	286.4867858886719	296.4638061523438	47.97975540161133	319.8433837890625	281.4996032714844	34.97348022460938	212.5310516357422	91.9483642578125	37.63585662841797	276.1138000488281	92.45340728759766	480.109375	453.3437805175781	113.7234268188477	770.8749389648438	471.7727661132812	-295.3464965820312	191.6672210693359	395.8655395507812	6.239449024200439	360.5662536621094	433.5459289550781	-153.042236328125	40.81417846679688	340.8445129394531	-191.2601776123047	91.79946136474609	304.468505859375	-220.7853698730469	83.70286560058594	404.172119140625	-322.23876953125	241.9209442138672	342.8232116699219	
273	2.72	-25.61354637145996	1000.782897949219	343.2885437011719	-14.42357444763184	1006.533264160156	210.7627105712891	-11.66429615020752	1101.05224609375	277.0161743164062	225.7285919189453	1284.38671875	281.8303833007812	-18.16003036499023	1225.482177734375	276.2549133300781	34.69515609741211	1498.767456054688	294.1463623046875	208.5141754150391	1395.97021484375	282.2500915527344	-35.94327926635742	1374.594848632812	380.6354370117188	-0.6272227168083191	1447.600463867188	203.0646667480469	97.91562652587891	1471.850830078125	122.2718505859375	86.54158782958984	1348.382690429688	38.57038879394531	107.6944274902344	1126.611572265625	11.42338085174561	18.14680862426758	1116.341430664062	59.14022827148438	214.3415832519531	890.9517822265625	61.94230651855469	174.7048797607422	864.997802734375	-11.41585731506348	135.5282592773438	1042.4462890625	4.806965351104736	227.1396331787109	721.8618774414062	57.73623657226562	188.8874664306641	806.5806884765625	-3.387939929962158	238.6962738037109	816.2095336914062	42.67231750488281	97.39395904541016	1460.1689453125	448.3397521972656	76.41819763183594	1398.056030273438	516.3894653320312	49.06192779541016	1112.613525390625	569.3344116210938	-9.043712615966797	1100.224365234375	544.05126953125	160.7192840576172	879.8823852539062	536.3977661132812	116.4123992919922	865.7879028320312	604.0699462890625	54.09607315063477	1057.002075195312	578.7687377929688	156.8982543945312	706.8324584960938	545.8241577148438	180.8515472412109	786.9802856445312	553.5474243164062	125.8629989624023	790.3543090820312	603.5291137695312	112.6274185180664	1675.062866210938	362.7304992675781	261.9114685058594	1702.633544921875	220.8081359863281	251.9300384521484	1698.575805664062	364.81103515625	131.8306121826172	1678.049560546875	198.7152099609375	129.5910797119141	933.3673706054688	92.77420043945312	86.74616241455078	924.4384155273438	470.6175842285156	178.5574645996094	956.2675170898438	425.0424194335938	199.6651153564453	959.1294555664062	150.8910675048828	241.280029296875	502.630859375	187.2424926757812	206.3074951171875	661.693603515625	136.3889007568359	159.7986450195312	29.99835014343262	222.8524475097656	183.6334381103516	248.713623046875	198.7642974853516	370.2156677246094	42.39925765991211	286.5183410644531	296.5007934570312	47.9412727355957	319.7923583984375	281.4927978515625	34.93278884887695	212.446533203125	91.85350799560547	37.74015426635742	276.164306640625	110.9886169433594	480.6672668457031	454.6031494140625	125.1696624755859	771.84423828125	472.0814208984375	-279.5718994140625	196.6686401367188	398.5957641601562	24.45026206970215	361.5983581542969	435.1651000976562	-137.8344879150391	42.74546432495117	347.8001403808594	-175.3842010498047	94.10530090332031	309.8768920898438	-205.7076416015625	88.50405883789062	409.6284484863281	-305.9718322753906	245.9163970947266	344.6041870117188	
274	2.73	-18.08260726928711	1000.937744140625	343.3082275390625	-6.846837043762207	1007.207275390625	210.6876983642578	-3.667607545852661	1101.754272460938	276.6869506835938	233.7342071533203	1284.8974609375	282.1589660644531	-10.39431285858154	1226.245483398438	275.9095458984375	42.98443603515625	1499.536865234375	293.5167541503906	216.6650085449219	1396.49951171875	282.60107421875	-28.21985244750977	1375.487182617188	379.719482421875	8.060205459594727	1448.350830078125	202.2917327880859	107.1233825683594	1472.400634765625	122.033576965332	96.89328002929688	1348.991088867188	38.18508911132812	120.3089447021484	1127.543823242188	10.64370536804199	30.12017250061035	1116.328002929688	56.97085571289062	228.9609832763672	893.1131591796875	62.16094589233398	190.5875091552734	866.789794921875	-11.70532321929932	149.0625915527344	1043.685668945312	4.222659111022949	244.2272491455078	724.2783203125	57.82508850097656	205.4793090820312	808.5476684570312	-3.604642868041992	254.6111450195312	818.7827758789062	43.02557373046875	104.8462142944336	1461.017456054688	448.0579528808594	83.43641662597656	1398.980712890625	516.0367431640625	55.44080352783203	1113.687377929688	569.1395263671875	-2.6152184009552	1101.181518554688	543.6425170898438	168.2748565673828	881.6343383789062	536.82568359375	123.6337203979492	867.1844482421875	604.163330078125	60.48934936523438	1058.062866210938	578.6427612304688	165.6697845458984	708.5828247070312	546.1552124023438	189.0139007568359	788.9199829101562	554.073486328125	133.5549774169922	791.84033203125	603.6361694335938	120.8454666137695	1675.660888671875	362.4736328125	270.1895751953125	1703.353393554688	220.6574096679688	260.15771484375	1699.39013671875	364.6575012207031	140.2682342529297	1678.62158203125	198.4642028808594	137.1506500244141	934.0376586914062	92.54015350341797	95.30946350097656	924.9227905273438	470.3741149902344	186.6235961914062	957.2559204101562	424.4361267089844	207.1067047119141	959.6806640625	150.1867370605469	243.7391204833984	502.0265808105469	186.7783966064453	210.5845184326172	661.4542846679688	136.1154022216797	159.7776489257812	30.0139274597168	222.9360504150391	184.5699615478516	248.4942626953125	198.5181121826172	370.241455078125	42.33840942382812	286.5557861328125	296.5426940917969	47.90179824829102	319.7526245117188	281.4840087890625	34.89851379394531	212.3772430419922	91.74301910400391	37.8370361328125	276.201904296875	129.4129333496094	481.5845642089844	455.6558532714844	136.5327911376953	772.9898071289062	472.4075317382812	-262.7659301757812	200.4115447998047	401.4215393066406	42.88165664672852	362.7604675292969	436.6752319335938	-120.6753921508789	44.74246978759766	354.9974975585938	-157.9247589111328	95.75334930419922	315.5686340332031	-188.8421020507812	92.65116882324219	415.3630065917969	-289.0057983398438	248.3936157226562	346.3730773925781	
